<svg width="97" height="96" xmlns="http://www.w3.org/2000/svg" xmlns:xlink="http://www.w3.org/1999/xlink" xml:space="preserve" overflow="hidden"><defs><clipPath id="clip0"><rect x="1156" y="0" width="97" height="96"/></clipPath><clipPath id="clip1"><rect x="1157" y="0" width="96" height="96"/></clipPath><clipPath id="clip2"><rect x="1157" y="0" width="96" height="96"/></clipPath><clipPath id="clip3"><rect x="1157" y="0" width="96" height="96"/></clipPath></defs><g clip-path="url(#clip0)" transform="translate(-1156 0)"><g clip-path="url(#clip1)"><g clip-path="url(#clip2)"><g clip-path="url(#clip3)"><path d="M1221.3 69.1C1219.8 67.6 1218.9 65.5 1218.9 63.4L1218.3 62.8C1209.2 68.4 1197.6 67.8 1189.1 61.3L1188.8 61.5C1187.7 62.3 1187 63.6 1187 65L1187 74 1223 74 1223 70.8 1221.3 69.1Z" fill="#000000" fill-rule="nonzero" fill-opacity="1"/><path d="M1230.5 39.5C1235.4 38.7 1238.7 34 1237.9 29.1 1237.1 24.2 1232.4 20.9 1227.5 21.7 1226.1 21.9 1224.8 22.5 1223.7 23.3 1227.8 27.7 1230.2 33.4 1230.5 39.5Z" fill="#000000" fill-rule="nonzero" fill-opacity="1"/><path d="M1245.2 47.4C1242.6 45.4 1239.6 43.9 1236.4 43.2 1234.5 42.6 1232.5 42.3 1230.5 42.1 1230.3 46.4 1229 50.6 1226.7 54.3L1227.3 54.9C1229.4 54.9 1231.5 55.8 1233 57.3L1235.7 60 1247 60 1247 51C1247 49.6 1246.4 48.2 1245.2 47.4Z" fill="#000000" fill-rule="nonzero" fill-opacity="1"/><path d="M1240.4 68.9 1231 59.4C1229.7 58.2 1228 57.6 1226.2 58L1222.8 54.7C1225.9 50.7 1227.5 45.9 1227.5 40.9 1227.6 28.3 1217.4 18 1204.7 17.9 1192 17.8 1181.9 28 1181.9 40.6 1181.9 53.2 1192 63.5 1204.7 63.6 1209.7 63.6 1214.6 62 1218.7 58.9L1222.1 62.2C1221.8 63.9 1222.3 65.7 1223.5 67L1233 76.5C1235 78.6 1238.4 78.7 1240.5 76.7 1242.6 74.7 1242.7 71.3 1240.7 69.2 1240.6 69.1 1240.5 69 1240.4 68.9ZM1204.8 22.6C1214.9 22.6 1223 30.7 1223 40.8 1223 45.1 1221.5 49.3 1218.7 52.5 1216.8 51.6 1214.9 50.9 1212.9 50.4 1210.2 49.6 1207.4 49.1 1204.6 49.1 1201.8 49.1 1199 49.6 1196.3 50.4 1194.4 50.9 1192.6 51.6 1190.9 52.6 1184.4 45 1185.3 33.5 1192.9 27 1196.2 24.1 1200.4 22.6 1204.8 22.6Z" fill="#000000" fill-rule="nonzero" fill-opacity="1"/><path d="M1214.7 36.8C1214.7 42.3781 1210.18 46.9 1204.6 46.9 1199.02 46.9 1194.5 42.3781 1194.5 36.8 1194.5 31.2219 1199.02 26.7 1204.6 26.7 1210.18 26.7 1214.7 31.2219 1214.7 36.8Z" fill="#000000" fill-rule="nonzero" fill-opacity="1"/><path d="M1179 42.1C1177.2 42.3 1175.4 42.6 1173.6 43.2 1170.5 44.1 1167.5 45.6 1164.8 47.4 1163.6 48.2 1163 49.6 1163 51L1163 60 1184.6 60C1185 59.4 1185.5 58.9 1186.1 58.5 1181.8 54 1179.3 48.2 1179 42.1Z" fill="#000000" fill-rule="nonzero" fill-opacity="1"/><path d="M1179 39.4C1179.3 33.3 1181.8 27.6 1186 23.1 1181.9 20.3 1176.3 21.4 1173.5 25.6 1170.7 29.8 1171.8 35.3 1176 38.1 1176.9 38.7 1177.9 39.1 1179 39.4Z" fill="#000000" fill-rule="nonzero" fill-opacity="1"/></g></g></g></g></svg>