<svg width="97" height="96" xmlns="http://www.w3.org/2000/svg" xmlns:xlink="http://www.w3.org/1999/xlink" xml:space="preserve" overflow="hidden"><defs><clipPath id="clip0"><rect x="1156" y="96" width="97" height="96"/></clipPath><clipPath id="clip1"><rect x="1157" y="96" width="96" height="96"/></clipPath><clipPath id="clip2"><rect x="1157" y="96" width="96" height="96"/></clipPath><clipPath id="clip3"><rect x="1157" y="96" width="96" height="96"/></clipPath></defs><g clip-path="url(#clip0)" transform="translate(-1156 -96)"><g clip-path="url(#clip1)"><g clip-path="url(#clip2)"><g clip-path="url(#clip3)"><path d="M1236.93 130.68 1200.93 139.21 1200.93 169C1198.92 168.6 1196.84 168.777 1194.93 169.51 1190.59 171.09 1187.93 174.71 1188.93 177.6 1189.93 180.49 1194.34 181.6 1198.68 179.99 1202.6 178.57 1204.84 174.99 1204.84 172.77L1204.84 143.92 1232.84 137.31 1232.84 162.41C1230.79 161.997 1228.66 162.177 1226.71 162.93 1222.27 164.56 1219.53 168.29 1220.61 171.28 1221.69 174.27 1226.16 175.37 1230.61 173.75 1234.37 172.4 1236.87 169.61 1237 167Z" fill="#000000" fill-rule="nonzero" fill-opacity="1"/><path d="M1190.58 113.4C1189.7 112.825 1188.96 112.055 1188.43 111.15L1188.43 109.31C1188.43 108.205 1187.53 107.31 1186.43 107.31 1185.33 107.31 1184.43 108.205 1184.43 109.31L1184.43 139.5C1182.5 139.159 1180.5 139.349 1178.67 140.05 1174.33 141.62 1171.67 145.24 1172.67 148.14 1173.67 151.04 1178.09 152.14 1182.43 150.53 1185.43 149.43 1187.65 147.34 1188.36 145.19L1188.36 124.1C1188.63 124.312 1188.91 124.505 1189.21 124.68 1195.88 128.68 1192.21 135 1195.47 135.03 1199.66 135.06 1199.83 119.57 1190.58 113.4Z" fill="#000000" fill-rule="nonzero" fill-opacity="1"/></g></g></g></g></svg>