<svg width="97" height="98" xmlns="http://www.w3.org/2000/svg" xmlns:xlink="http://www.w3.org/1999/xlink" xml:space="preserve" overflow="hidden"><defs><clipPath id="clip0"><rect x="1156" y="194" width="97" height="98"/></clipPath><clipPath id="clip1"><rect x="1157" y="195" width="96" height="96"/></clipPath><clipPath id="clip2"><rect x="1157" y="195" width="96" height="96"/></clipPath><clipPath id="clip3"><rect x="1157" y="195" width="96" height="96"/></clipPath></defs><g clip-path="url(#clip0)" transform="translate(-1156 -194)"><g clip-path="url(#clip1)"><g clip-path="url(#clip2)"><g clip-path="url(#clip3)"><path d="M1178.9 222.1C1176 216.3 1171 219.8 1171 223.1 1171 228 1178.9 234 1178.9 234 1178.9 234 1186.8 227.9 1186.8 223.1 1186.8 219.8 1181.9 216.3 1178.9 222.1Z" fill="#000000" fill-rule="nonzero" fill-opacity="1"/><path d="M1231.1 212.1C1228.2 206.3 1223.2 209.8 1223.2 213 1223.2 217.9 1231.1 223.9 1231.1 223.9 1231.1 223.9 1239 217.9 1239 213.1 1239 209.8 1234 206.3 1231.1 212.1Z" fill="#000000" fill-rule="nonzero" fill-opacity="1"/><path d="M1178.9 216.2C1180.1 215.4 1181.5 215 1182.9 215 1183.7 215 1184.5 215.1 1185.2 215.4 1195.1 208.3 1208.1 207 1219.2 212.1 1219.4 210.8 1219.9 209.5 1220.7 208.4 1206.4 201.9 1189.6 204.9 1178.4 215.9 1178.6 216 1178.7 216.1 1178.9 216.2Z" fill="#000000" fill-rule="nonzero" fill-opacity="1"/><path d="M1234.6 226.3C1240.3 236.4 1240.5 248.6 1235.1 258.8 1236.3 259.8 1237.1 261.1 1237.6 262.5 1244.8 250.5 1244.8 235.5 1237.6 223.4 1236.7 224.5 1235.7 225.4 1234.6 226.3Z" fill="#000000" fill-rule="nonzero" fill-opacity="1"/><path d="M1218.5 274.2C1201.3 281.6 1181.3 273.7 1173.8 256.5 1170.7 249.2 1170.2 241.1 1172.4 233.5 1171.3 232.4 1170.3 231.1 1169.4 229.8 1162.1 249.5 1172.1 271.4 1191.8 278.7 1201.5 282.3 1212.2 281.8 1221.5 277.3 1220.4 276.3 1219.4 275.3 1218.5 274.2Z" fill="#000000" fill-rule="nonzero" fill-opacity="1"/><path d="M1226.1 264C1223.2 258.2 1218.2 261.7 1218.2 264.9 1218.2 269.8 1226.1 275.8 1226.1 275.8 1226.1 275.8 1234 269.9 1234 265 1234 261.7 1229 258.2 1226.1 264Z" fill="#000000" fill-rule="nonzero" fill-opacity="1"/><path d="M1182.3 243.3C1181.2 243.1 1180.5 242 1180.8 240.9 1182 235.5 1187.3 232.1 1192.7 233.2 1196.6 234 1199.6 237 1200.4 240.9 1200.6 242 1199.9 243 1198.9 243.3 1198.8 243.3 1198.6 243.3 1198.5 243.3 1197.6 243.3 1196.7 242.6 1196.5 241.7 1195.8 238.5 1192.6 236.4 1189.4 237.1 1187.1 237.6 1185.3 239.4 1184.8 241.7 1184.4 242.8 1183.3 243.5 1182.3 243.3Z" fill="#000000" fill-rule="nonzero" fill-opacity="1"/><path d="M1205 264C1199.4 264 1194.1 261.5 1190.5 257.3 1189.8 256.4 1189.9 255.2 1190.8 254.5 1191.6 253.8 1192.8 253.9 1193.5 254.7 1198.9 261 1208.4 261.8 1214.8 256.4 1215.4 255.9 1216 255.3 1216.5 254.7 1217.2 253.8 1218.4 253.7 1219.3 254.4 1220.2 255.1 1220.3 256.3 1219.6 257.2 1219.6 257.2 1219.5 257.3 1219.5 257.3 1215.9 261.5 1210.6 264 1205 264Z" fill="#000000" fill-rule="nonzero" fill-opacity="1"/><path d="M1227.7 243.3C1227.6 243.3 1227.4 243.3 1227.3 243.3 1226.4 243.3 1225.5 242.6 1225.3 241.7 1224.6 238.5 1221.4 236.4 1218.2 237.1 1215.9 237.6 1214.1 239.4 1213.6 241.7 1213.3 242.8 1212.3 243.4 1211.2 243.2 1210.2 243 1209.5 241.9 1209.7 240.9 1210.9 235.5 1216.2 232.1 1221.6 233.2 1225.5 234 1228.5 237 1229.3 240.9 1229.5 242 1228.8 243.1 1227.7 243.3Z" fill="#000000" fill-rule="nonzero" fill-opacity="1"/></g></g></g></g></svg>