<svg width="97" height="97" xmlns="http://www.w3.org/2000/svg" xmlns:xlink="http://www.w3.org/1999/xlink" xml:space="preserve" overflow="hidden"><defs><clipPath id="clip0"><rect x="1164" y="69" width="97" height="97"/></clipPath><clipPath id="clip1"><rect x="1165" y="70" width="96" height="96"/></clipPath><clipPath id="clip2"><rect x="1165" y="70" width="96" height="96"/></clipPath><clipPath id="clip3"><rect x="1165" y="70" width="96" height="96"/></clipPath></defs><g clip-path="url(#clip0)" transform="translate(-1164 -69)"><g clip-path="url(#clip1)"><g clip-path="url(#clip2)"><g clip-path="url(#clip3)"><path d="M1241.77 96.523 1241.77 92.143 1237.77 92.143 1237.77 96.523C1235.76 97.6077 1235.01 100.115 1236.1 102.124 1236.48 102.832 1237.06 103.413 1237.77 103.796L1237.77 126.9C1237.77 128.752 1237.04 130.529 1235.72 131.835L1233.27 134.3C1232.48 134.283 1231.73 134.586 1231.17 135.14L1227.55 138.768C1226.42 139.895 1226.42 141.722 1227.54 142.85 1228.67 143.977 1230.5 143.977 1231.63 142.85L1235.25 139.222C1235.81 138.668 1236.11 137.911 1236.09 137.128L1238.55 134.67C1240.62 132.614 1241.78 129.816 1241.77 126.9L1241.77 103.8C1243.78 102.715 1244.53 100.208 1243.44 98.1994 1243.06 97.4909 1242.48 96.9097 1241.77 96.527Z" fill="#000000" fill-rule="nonzero" fill-opacity="1"/><path d="M1205.97 114.776C1204.72 114.776 1203.7 115.789 1203.7 117.039 1203.7 118.289 1204.72 119.302 1205.97 119.302 1207.22 119.302 1208.23 118.289 1208.23 117.039 1208.23 115.79 1207.22 114.778 1205.97 114.776Z" fill="#000000" fill-rule="nonzero" fill-opacity="1"/><path d="M1205.97 92.143C1192.22 92.1375 1181.06 103.281 1181.06 117.033 1181.05 130.785 1192.2 141.938 1205.95 141.943 1219.7 141.949 1230.85 130.805 1230.86 117.053 1230.86 117.05 1230.86 117.046 1230.86 117.043 1230.87 103.301 1219.73 92.1529 1205.99 92.143 1205.98 92.143 1205.98 92.143 1205.97 92.143ZM1205.97 124.901C1201.62 124.902 1198.1 121.383 1198.1 117.041 1198.1 112.699 1201.62 109.178 1205.96 109.177 1210.31 109.176 1213.83 112.695 1213.83 117.037 1213.83 117.038 1213.83 117.038 1213.83 117.039 1213.81 121.375 1210.3 124.887 1205.97 124.9Z" fill="#000000" fill-rule="nonzero" fill-opacity="1"/><path d="M1246.83 82 1178 82C1173.58 82 1170 85.5817 1170 90L1170 145C1170 149.418 1173.58 153 1178 153L1246.83 153C1251.25 153 1254.83 149.418 1254.83 145L1254.83 90C1254.83 85.5817 1251.25 82 1246.83 82ZM1248.83 145C1248.83 146.105 1247.94 147 1246.83 147L1178 147C1176.9 147 1176 146.105 1176 145L1176 90C1176 88.8954 1176.9 88 1178 88L1246.83 88C1247.94 88 1248.83 88.8954 1248.83 90Z" fill="#000000" fill-rule="nonzero" fill-opacity="1"/></g></g></g></g></svg>